<svg width="31" height="30" viewBox="0 0 31 30" fill="none" xmlns="http://www.w3.org/2000/svg">
<path d="M24.4928 19.1934C24.1879 18.8443 23.7545 18.2517 23.4222 17.4112C23.0923 16.5758 22.9252 15.6573 22.9252 14.6798C22.9252 11.7739 21.1603 9.09794 18.5089 7.9436C18.6791 7.548 18.7686 7.1179 18.7686 6.68627C18.7678 4.92958 17.3385 3.5 15.5813 3.5C13.8241 3.5 12.3948 4.92958 12.3948 6.68652C12.3948 7.1179 12.484 7.54826 12.6542 7.94386C10.0028 9.09846 8.2379 11.7744 8.2379 14.68C8.2379 15.6573 8.07076 16.5763 7.74084 17.4114C7.40811 18.2519 6.97494 18.8443 6.66981 19.1942C6.34679 19.5632 6 20.2366 6 20.8405V21.7076C6 22.5869 6.70942 23.3022 7.58163 23.3022L11.5463 23.3012C11.9818 25.1637 13.6549 26.5 15.5813 26.5C17.5077 26.5 19.1805 25.1637 19.6163 23.302H23.6211C24.471 23.302 25.1626 22.5867 25.1626 21.7073V20.8402C25.1626 20.2363 24.8158 19.5629 24.4928 19.1934ZM23.9057 21.7073C23.9057 21.8936 23.7782 22.0446 23.6216 22.0446H19.4448C18.9533 22.0446 18.5107 22.4175 18.4146 22.9115C18.1504 24.2621 16.959 25.2427 15.5813 25.2427C14.2036 25.2427 13.0122 24.2624 12.7479 22.9125C12.6519 22.4175 12.209 22.0446 11.7178 22.0446H7.58163C7.40274 22.0446 7.25707 21.8934 7.25707 21.7073V20.8402C7.25707 20.6475 7.41117 20.2558 7.6169 20.0201C7.9872 19.5959 8.51185 18.8796 8.9095 17.873C9.2982 16.8891 9.49548 15.815 9.49548 14.68C9.49548 12.1035 11.127 9.79689 13.5555 8.93975C13.797 8.85414 13.9807 8.67244 14.0589 8.44193C14.1387 8.20887 14.1034 7.94999 13.9618 7.732C13.7592 7.42022 13.6524 7.05887 13.6524 6.68652C13.6524 5.6229 14.5179 4.75733 15.5815 4.75733C16.6452 4.75733 17.5107 5.6229 17.5107 6.68652C17.5107 7.0581 17.4037 7.41971 17.2013 7.732C17.0597 7.95024 17.0249 8.20887 17.1039 8.44091C17.1826 8.6727 17.3656 8.8544 17.6078 8.9395C20.0361 9.79663 21.6678 12.1035 21.6678 14.68C21.6678 15.815 21.8649 16.8896 22.2538 17.873C22.6515 18.8796 23.1756 19.5959 23.5462 20.0196C23.7524 20.2558 23.906 20.6475 23.906 20.8402L23.9057 21.7073Z" fill="black" stroke="black" stroke-width="0.7"/>
</svg>
